<svg xmlns="http://www.w3.org/2000/svg" xmlns:xlink="http://www.w3.org/1999/xlink" width="538" zoomAndPan="magnify" viewBox="0 0 403.5 60" height="80" preserveAspectRatio="xMidYMid meet" version="1.0"><defs><g/></defs><g fill="#d9d9d9" fill-opacity="1"><g transform="translate(36.194861, 42.525292)"><g><path d="M 0.375 0 L 4.28125 0 L 5.015625 -5.578125 L 8.890625 -5.578125 L 9.625 0 L 13.53125 0 L 9.40625 -27.328125 L 4.5 -27.328125 Z M 7.171875 -18.4375 L 8.328125 -9.8125 L 5.578125 -9.8125 L 6.734375 -18.4375 L 6.84375 -19.140625 L 7.0625 -19.140625 Z M 7.171875 -18.4375 "/></g></g></g><g fill="#d9d9d9" fill-opacity="1"><g transform="translate(52.884189, 42.525292)"><g><path d="M 1.484375 -27.328125 L 1.484375 0 L 5.5 0 L 5.5 -10.921875 C 6.363281 -10.921875 7.21875 -11.0625 8.0625 -11.34375 C 8.90625 -11.632812 9.660156 -12.09375 10.328125 -12.71875 C 11.003906 -13.351562 11.546875 -14.191406 11.953125 -15.234375 C 12.359375 -16.273438 12.5625 -17.578125 12.5625 -19.140625 C 12.5625 -20.703125 12.359375 -22.015625 11.953125 -23.078125 C 11.546875 -24.148438 11.003906 -24.992188 10.328125 -25.609375 C 9.660156 -26.253906 8.90625 -26.703125 8.0625 -26.953125 C 7.21875 -27.203125 6.363281 -27.328125 5.5 -27.328125 Z M 5.5 -15.015625 L 5.5 -23.234375 C 6.71875 -23.234375 7.535156 -22.910156 7.953125 -22.265625 C 8.179688 -21.941406 8.332031 -21.503906 8.40625 -20.953125 C 8.476562 -20.410156 8.515625 -19.757812 8.515625 -19 C 8.515625 -18.226562 8.476562 -17.585938 8.40625 -17.078125 C 8.332031 -16.566406 8.179688 -16.164062 7.953125 -15.875 C 7.554688 -15.300781 6.738281 -15.015625 5.5 -15.015625 Z M 5.5 -15.015625 "/></g></g></g><g fill="#d9d9d9" fill-opacity="1"><g transform="translate(68.75585, 42.525292)"><g><path d="M 1.484375 -27.328125 L 1.484375 0 L 10.8125 0 L 10.8125 -3.71875 L 5.5 -3.71875 L 5.5 -27.328125 Z M 1.484375 -27.328125 "/></g></g></g><g fill="#d9d9d9" fill-opacity="1"><g transform="translate(82.508992, 42.525292)"><g><path d="M 1.484375 -27.328125 L 1.484375 0 L 5.5 0 L 5.5 -27.328125 Z M 1.484375 -27.328125 "/></g></g></g><g fill="#d9d9d9" fill-opacity="1"><g transform="translate(92.285288, 42.525292)"><g><path d="M 5.5 -27.328125 L 1.484375 -27.328125 L 1.484375 0 L 5.5 0 L 5.5 -9.671875 L 6.4375 -11.890625 L 6.65625 -12.453125 L 6.765625 -12.453125 L 6.875 -11.890625 L 9.671875 0 L 13.5625 0 L 9.40625 -18.328125 L 13.078125 -27.328125 L 9.1875 -27.328125 L 5.84375 -18.21875 L 5.65625 -17.765625 L 5.5 -17.765625 Z M 5.5 -27.328125 "/></g></g></g><g fill="#d9d9d9" fill-opacity="1"><g transform="translate(109.011778, 42.525292)"><g><path d="M 0.375 0 L 4.28125 0 L 5.015625 -5.578125 L 8.890625 -5.578125 L 9.625 0 L 13.53125 0 L 9.40625 -27.328125 L 4.5 -27.328125 Z M 7.171875 -18.4375 L 8.328125 -9.8125 L 5.578125 -9.8125 L 6.734375 -18.4375 L 6.84375 -19.140625 L 7.0625 -19.140625 Z M 7.171875 -18.4375 "/></g></g></g><g fill="#d9d9d9" fill-opacity="1"><g transform="translate(125.701104, 42.525292)"><g><path d="M 8.140625 -20 L 12.078125 -20.375 C 12.078125 -21.132812 12.007812 -21.941406 11.875 -22.796875 C 11.738281 -23.660156 11.472656 -24.460938 11.078125 -25.203125 C 10.679688 -25.921875 10.117188 -26.507812 9.390625 -26.96875 C 8.660156 -27.425781 7.6875 -27.644531 6.46875 -27.625 C 5.53125 -27.59375 4.722656 -27.382812 4.046875 -27 C 3.378906 -26.613281 2.835938 -26.125 2.421875 -25.53125 C 1.992188 -24.914062 1.6875 -24.226562 1.5 -23.46875 C 1.320312 -22.71875 1.234375 -21.96875 1.234375 -21.21875 C 1.234375 -20.476562 1.34375 -19.75 1.5625 -19.03125 C 1.957031 -17.613281 2.613281 -16.203125 3.53125 -14.796875 C 3.976562 -14.097656 4.410156 -13.4375 4.828125 -12.8125 C 5.253906 -12.195312 5.664062 -11.609375 6.0625 -11.046875 C 6.257812 -10.765625 6.4375 -10.488281 6.59375 -10.21875 C 6.757812 -9.945312 6.925781 -9.675781 7.09375 -9.40625 C 7.394531 -8.863281 7.644531 -8.335938 7.84375 -7.828125 C 8.039062 -7.316406 8.140625 -6.835938 8.140625 -6.390625 C 8.140625 -5.523438 8.015625 -4.804688 7.765625 -4.234375 C 7.515625 -3.660156 7.09375 -3.375 6.5 -3.375 C 6.082031 -3.375 5.75 -3.507812 5.5 -3.78125 C 5.25 -4.0625 5.0625 -4.425781 4.9375 -4.875 C 4.789062 -5.289062 4.695312 -5.773438 4.65625 -6.328125 C 4.625 -6.890625 4.609375 -7.457031 4.609375 -8.03125 L 0.671875 -7.65625 C 0.671875 -6.644531 0.738281 -5.660156 0.875 -4.703125 C 1.007812 -3.742188 1.273438 -2.894531 1.671875 -2.15625 C 2.085938 -1.414062 2.675781 -0.820312 3.4375 -0.375 C 4.195312 0.0703125 5.21875 0.296875 6.5 0.296875 C 7.59375 0.296875 8.5 0.101562 9.21875 -0.28125 C 9.9375 -0.664062 10.503906 -1.164062 10.921875 -1.78125 C 11.347656 -2.425781 11.644531 -3.15625 11.8125 -3.96875 C 11.988281 -4.789062 12.078125 -5.660156 12.078125 -6.578125 C 12.078125 -7.316406 11.960938 -8.039062 11.734375 -8.75 C 11.515625 -9.457031 11.234375 -10.160156 10.890625 -10.859375 C 10.546875 -11.546875 10.148438 -12.238281 9.703125 -12.9375 C 9.253906 -13.632812 8.796875 -14.328125 8.328125 -15.015625 C 7.929688 -15.585938 7.546875 -16.144531 7.171875 -16.6875 C 6.796875 -17.238281 6.460938 -17.769531 6.171875 -18.28125 C 5.867188 -18.800781 5.625 -19.300781 5.4375 -19.78125 C 5.257812 -20.269531 5.171875 -20.75 5.171875 -21.21875 C 5.171875 -22.019531 5.269531 -22.664062 5.46875 -23.15625 C 5.664062 -23.65625 6.023438 -23.914062 6.546875 -23.9375 C 6.867188 -23.9375 7.132812 -23.816406 7.34375 -23.578125 C 7.550781 -23.347656 7.71875 -23.046875 7.84375 -22.671875 C 7.96875 -22.273438 8.046875 -21.84375 8.078125 -21.375 C 8.117188 -20.90625 8.140625 -20.445312 8.140625 -20 Z M 8.140625 -20 "/></g></g></g><g fill="#d9d9d9" fill-opacity="1"><g transform="translate(141.23825, 42.525292)"><g><path d="M 1.484375 -27.328125 L 1.484375 0 L 5.5 0 L 5.5 -27.328125 Z M 1.484375 -27.328125 "/></g></g></g><g fill="#d9d9d9" fill-opacity="1"><g transform="translate(151.014546, 42.525292)"><g/></g></g><g fill="#d9d9d9" fill-opacity="1"><g transform="translate(159.527187, 42.525292)"><g><path d="M 1.484375 -27.328125 L 1.484375 0 L 5.5 0 L 5.5 -10.921875 C 6.363281 -10.921875 7.21875 -11.0625 8.0625 -11.34375 C 8.90625 -11.632812 9.660156 -12.09375 10.328125 -12.71875 C 11.003906 -13.351562 11.546875 -14.191406 11.953125 -15.234375 C 12.359375 -16.273438 12.5625 -17.578125 12.5625 -19.140625 C 12.5625 -20.703125 12.359375 -22.015625 11.953125 -23.078125 C 11.546875 -24.148438 11.003906 -24.992188 10.328125 -25.609375 C 9.660156 -26.253906 8.90625 -26.703125 8.0625 -26.953125 C 7.21875 -27.203125 6.363281 -27.328125 5.5 -27.328125 Z M 5.5 -15.015625 L 5.5 -23.234375 C 6.71875 -23.234375 7.535156 -22.910156 7.953125 -22.265625 C 8.179688 -21.941406 8.332031 -21.503906 8.40625 -20.953125 C 8.476562 -20.410156 8.515625 -19.757812 8.515625 -19 C 8.515625 -18.226562 8.476562 -17.585938 8.40625 -17.078125 C 8.332031 -16.566406 8.179688 -16.164062 7.953125 -15.875 C 7.554688 -15.300781 6.738281 -15.015625 5.5 -15.015625 Z M 5.5 -15.015625 "/></g></g></g><g fill="#d9d9d9" fill-opacity="1"><g transform="translate(175.398846, 42.525292)"><g><path d="M 8.140625 -20 L 12.078125 -20.375 C 12.078125 -21.132812 12.007812 -21.941406 11.875 -22.796875 C 11.738281 -23.660156 11.472656 -24.460938 11.078125 -25.203125 C 10.679688 -25.921875 10.117188 -26.507812 9.390625 -26.96875 C 8.660156 -27.425781 7.6875 -27.644531 6.46875 -27.625 C 5.53125 -27.59375 4.722656 -27.382812 4.046875 -27 C 3.378906 -26.613281 2.835938 -26.125 2.421875 -25.53125 C 1.992188 -24.914062 1.6875 -24.226562 1.5 -23.46875 C 1.320312 -22.71875 1.234375 -21.96875 1.234375 -21.21875 C 1.234375 -20.476562 1.34375 -19.75 1.5625 -19.03125 C 1.957031 -17.613281 2.613281 -16.203125 3.53125 -14.796875 C 3.976562 -14.097656 4.410156 -13.4375 4.828125 -12.8125 C 5.253906 -12.195312 5.664062 -11.609375 6.0625 -11.046875 C 6.257812 -10.765625 6.4375 -10.488281 6.59375 -10.21875 C 6.757812 -9.945312 6.925781 -9.675781 7.09375 -9.40625 C 7.394531 -8.863281 7.644531 -8.335938 7.84375 -7.828125 C 8.039062 -7.316406 8.140625 -6.835938 8.140625 -6.390625 C 8.140625 -5.523438 8.015625 -4.804688 7.765625 -4.234375 C 7.515625 -3.660156 7.09375 -3.375 6.5 -3.375 C 6.082031 -3.375 5.75 -3.507812 5.5 -3.78125 C 5.25 -4.0625 5.0625 -4.425781 4.9375 -4.875 C 4.789062 -5.289062 4.695312 -5.773438 4.65625 -6.328125 C 4.625 -6.890625 4.609375 -7.457031 4.609375 -8.03125 L 0.671875 -7.65625 C 0.671875 -6.644531 0.738281 -5.660156 0.875 -4.703125 C 1.007812 -3.742188 1.273438 -2.894531 1.671875 -2.15625 C 2.085938 -1.414062 2.675781 -0.820312 3.4375 -0.375 C 4.195312 0.0703125 5.21875 0.296875 6.5 0.296875 C 7.59375 0.296875 8.5 0.101562 9.21875 -0.28125 C 9.9375 -0.664062 10.503906 -1.164062 10.921875 -1.78125 C 11.347656 -2.425781 11.644531 -3.15625 11.8125 -3.96875 C 11.988281 -4.789062 12.078125 -5.660156 12.078125 -6.578125 C 12.078125 -7.316406 11.960938 -8.039062 11.734375 -8.75 C 11.515625 -9.457031 11.234375 -10.160156 10.890625 -10.859375 C 10.546875 -11.546875 10.148438 -12.238281 9.703125 -12.9375 C 9.253906 -13.632812 8.796875 -14.328125 8.328125 -15.015625 C 7.929688 -15.585938 7.546875 -16.144531 7.171875 -16.6875 C 6.796875 -17.238281 6.460938 -17.769531 6.171875 -18.28125 C 5.867188 -18.800781 5.625 -19.300781 5.4375 -19.78125 C 5.257812 -20.269531 5.171875 -20.75 5.171875 -21.21875 C 5.171875 -22.019531 5.269531 -22.664062 5.46875 -23.15625 C 5.664062 -23.65625 6.023438 -23.914062 6.546875 -23.9375 C 6.867188 -23.9375 7.132812 -23.816406 7.34375 -23.578125 C 7.550781 -23.347656 7.71875 -23.046875 7.84375 -22.671875 C 7.96875 -22.273438 8.046875 -21.84375 8.078125 -21.375 C 8.117188 -20.90625 8.140625 -20.445312 8.140625 -20 Z M 8.140625 -20 "/></g></g></g><g fill="#d9d9d9" fill-opacity="1"><g transform="translate(190.936, 42.525292)"><g><path d="M 1.484375 0 L 6.4375 0 C 7.625 -0.0507812 8.617188 -0.296875 9.421875 -0.734375 C 10.222656 -1.179688 10.863281 -1.753906 11.34375 -2.453125 C 11.8125 -3.171875 12.144531 -3.972656 12.34375 -4.859375 C 12.539062 -5.753906 12.640625 -6.710938 12.640625 -7.734375 C 12.640625 -9.117188 12.488281 -10.234375 12.1875 -11.078125 C 11.625 -12.765625 10.84375 -13.878906 9.84375 -14.421875 C 10.320312 -14.835938 10.71875 -15.242188 11.03125 -15.640625 C 11.351562 -16.046875 11.617188 -16.46875 11.828125 -16.90625 C 12.023438 -17.351562 12.160156 -17.832031 12.234375 -18.34375 C 12.304688 -18.851562 12.34375 -19.429688 12.34375 -20.078125 C 12.34375 -21.441406 12.1875 -22.582031 11.875 -23.5 C 11.5625 -24.414062 11.097656 -25.15625 10.484375 -25.71875 C 9.859375 -26.289062 9.085938 -26.703125 8.171875 -26.953125 C 7.253906 -27.203125 6.203125 -27.328125 5.015625 -27.328125 L 1.484375 -27.328125 Z M 5.5 -16.0625 L 5.5 -23.34375 C 5.675781 -23.34375 5.9375 -23.328125 6.28125 -23.296875 C 6.625 -23.273438 6.957031 -23.15625 7.28125 -22.9375 C 7.632812 -22.707031 7.921875 -22.34375 8.140625 -21.84375 C 8.359375 -21.351562 8.46875 -20.640625 8.46875 -19.703125 C 8.46875 -18.753906 8.359375 -18.03125 8.140625 -17.53125 C 7.921875 -17.039062 7.632812 -16.6875 7.28125 -16.46875 C 6.957031 -16.238281 6.625 -16.113281 6.28125 -16.09375 C 5.9375 -16.070312 5.675781 -16.0625 5.5 -16.0625 Z M 5.5 -3.984375 L 5.5 -12.375 C 5.675781 -12.375 5.9375 -12.367188 6.28125 -12.359375 C 6.625 -12.347656 6.957031 -12.21875 7.28125 -11.96875 C 7.632812 -11.71875 7.921875 -11.300781 8.140625 -10.71875 C 8.359375 -10.132812 8.46875 -9.285156 8.46875 -8.171875 C 8.46875 -7.054688 8.359375 -6.207031 8.140625 -5.625 C 7.921875 -5.050781 7.632812 -4.640625 7.28125 -4.390625 C 6.957031 -4.140625 6.625 -4.007812 6.28125 -4 C 5.9375 -3.988281 5.675781 -3.984375 5.5 -3.984375 Z M 5.5 -3.984375 "/></g></g></g><g fill="#d9d9d9" fill-opacity="1"><g transform="translate(207.253648, 42.525292)"><g/></g></g><g fill="#d9d9d9" fill-opacity="1"><g transform="translate(215.766289, 42.525292)"><g><path d="M 0.375 0 L 4.28125 0 L 5.015625 -5.578125 L 8.890625 -5.578125 L 9.625 0 L 13.53125 0 L 9.40625 -27.328125 L 4.5 -27.328125 Z M 7.171875 -18.4375 L 8.328125 -9.8125 L 5.578125 -9.8125 L 6.734375 -18.4375 L 6.84375 -19.140625 L 7.0625 -19.140625 Z M 7.171875 -18.4375 "/></g></g></g><g fill="#d9d9d9" fill-opacity="1"><g transform="translate(232.455615, 42.525292)"><g><path d="M 1.484375 -27.328125 L 1.484375 0 L 10.8125 0 L 10.8125 -3.71875 L 5.5 -3.71875 L 5.5 -27.328125 Z M 1.484375 -27.328125 "/></g></g></g><g fill="#d9d9d9" fill-opacity="1"><g transform="translate(246.208752, 42.525292)"><g><path d="M 1.34375 -11.78125 L 1.34375 -8.25 L 6.734375 -8.25 L 6.734375 -11.78125 Z M 1.34375 -11.78125 "/></g></g></g><g fill="#d9d9d9" fill-opacity="1"><g transform="translate(257.0629, 42.525292)"><g><path d="M 0.375 0 L 4.28125 0 L 5.015625 -5.578125 L 8.890625 -5.578125 L 9.625 0 L 13.53125 0 L 9.40625 -27.328125 L 4.5 -27.328125 Z M 7.171875 -18.4375 L 8.328125 -9.8125 L 5.578125 -9.8125 L 6.734375 -18.4375 L 6.84375 -19.140625 L 7.0625 -19.140625 Z M 7.171875 -18.4375 "/></g></g></g><g fill="#d9d9d9" fill-opacity="1"><g transform="translate(273.752226, 42.525292)"><g><path d="M 0.375 -4.3125 L 0.375 0 L 11 0 L 11 -3.984375 L 4.609375 -3.984375 L 11 -23.34375 L 11 -27.328125 L 1.265625 -27.328125 L 1.265625 -23.34375 L 6.65625 -23.34375 Z M 0.375 -4.3125 "/></g></g></g><g fill="#d9d9d9" fill-opacity="1"><g transform="translate(287.914206, 42.525292)"><g><path d="M 1.484375 -27.328125 L 1.484375 0 L 5.5 0 L 5.5 -27.328125 Z M 1.484375 -27.328125 "/></g></g></g><g fill="#d9d9d9" fill-opacity="1"><g transform="translate(297.690502, 42.525292)"><g><path d="M 0.375 -4.3125 L 0.375 0 L 11 0 L 11 -3.984375 L 4.609375 -3.984375 L 11 -23.34375 L 11 -27.328125 L 1.265625 -27.328125 L 1.265625 -23.34375 L 6.65625 -23.34375 Z M 0.375 -4.3125 "/></g></g></g><g fill="#d9d9d9" fill-opacity="1"><g transform="translate(311.852482, 42.525292)"><g><path d="M 1.484375 -27.328125 L 1.484375 0 L 5.5 0 L 5.5 -27.328125 Z M 1.484375 -27.328125 "/></g></g></g><g fill="#d9d9d9" fill-opacity="1"><g transform="translate(321.628778, 42.525292)"><g><path d="M 6.203125 -18.578125 L 4.203125 -27.328125 L 0.265625 -27.328125 L 4.34375 -11.640625 L 4.34375 0 L 8.359375 0 L 8.359375 -11.640625 L 12.453125 -27.328125 L 8.515625 -27.328125 L 6.5 -18.578125 L 6.390625 -18.328125 L 6.3125 -18.328125 Z M 6.203125 -18.578125 "/></g></g></g><g fill="#d9d9d9" fill-opacity="1"><g transform="translate(337.128759, 42.525292)"><g><path d="M 0.375 0 L 4.28125 0 L 5.015625 -5.578125 L 8.890625 -5.578125 L 9.625 0 L 13.53125 0 L 9.40625 -27.328125 L 4.5 -27.328125 Z M 7.171875 -18.4375 L 8.328125 -9.8125 L 5.578125 -9.8125 L 6.734375 -18.4375 L 6.84375 -19.140625 L 7.0625 -19.140625 Z M 7.171875 -18.4375 "/></g></g></g><g fill="#d9d9d9" fill-opacity="1"><g transform="translate(353.818085, 42.525292)"><g><path d="M 8.625 -11.890625 L 8.625 0 L 12.640625 0 L 12.640625 -27.328125 L 8.625 -27.328125 L 8.625 -16.015625 L 5.5 -16.015625 L 5.5 -27.328125 L 1.484375 -27.328125 L 1.484375 0 L 5.5 0 L 5.5 -11.890625 Z M 8.625 -11.890625 "/></g></g></g></svg>